<svg xmlns="http://www.w3.org/2000/svg" width="161" height="24" viewBox="0 0 161 24">
    <g fill="#FFF" fill-rule="nonzero">
        <path d="M90.521 1.007v.229h1.974l-5.02 16.28-5.945-16.28h1.957v-.23h-7.968v.23h2.096l8.23 22.503 7.076-22.503h1.9v-.23zM127.738 1.007h7.993v.23h-2.121v17.352c0 2.719 2.8 4.373 5.249 4.373 2.636 0 4.856-1.835 4.856-4.528V1.236h-2.506v-.23h18.797v8.051h-.156c-.238-2.13-.647-4.317-2.112-5.979-1.483-1.679-3.498-1.842-5.57-1.842h-2.235v10.351c.459.05.926.082 1.392.082 2.81 0 3.538-1.933 3.661-4.324h.205v9.082h-.205c-.352-2.17-1.31-4.496-3.858-4.496-.4 0-.794.025-1.195.057V23.06h3.35c1.735 0 3.464-.753 4.692-1.965a7.14 7.14 0 0 0 2.03-3.824c.14-.81.205-1.638.247-2.457h.18v8.476h-16.125v-.23h1.875V1.236h-2.132V18.5c0 3.57-3.39 5.151-6.567 5.151-3.595 0-7.56-1.744-7.56-5.855V1.236h-2.185v-.23z"/>
        <path d="M105.846 12.234c0-3.25-1.163-11.374-5.56-11.374-4.415 0-5.561 8.114-5.561 11.374s1.155 11.383 5.56 11.383c4.398 0 5.561-8.132 5.561-11.383m-5.577 11.719c-2.645 0-5.176-1.483-6.813-3.505-1.867-2.301-2.777-5.274-2.777-8.214 0-2.825.836-5.667 2.564-7.92 1.703-2.21 4.266-3.79 7.116-3.79 2.62 0 5.135 1.498 6.748 3.496 1.859 2.301 2.784 5.282 2.784 8.222 0 2.817-.844 5.659-2.563 7.911-1.687 2.194-4.234 3.8-7.059 3.8M74.63 23.646h-6.542l2.846-12.87c.057-.368.113-.715.17-1.04.056-.325.085-.659.085-.998 0-.51-.093-.928-.276-1.254-.185-.325-.404-.573-.659-.743a2.58 2.58 0 0 0-.807-.361 3.08 3.08 0 0 0-.722-.106c-.51 0-.991.113-1.444.34-.453.227-.85.51-1.19.85-.538.537-.955 1.21-1.252 2.017-.298.807-.546 1.65-.744 2.527L61.42 23.646h-6.542l4.97-21.875h6.584l-.638 2.634.999-.998c.382-.383.828-.73 1.338-1.041a8.845 8.845 0 0 1 1.762-.807c.665-.226 1.423-.34 2.273-.34.82 0 1.6.12 2.336.362.736.24 1.38.601 1.933 1.082a5.019 5.019 0 0 1 1.295 1.784c.312.709.467 1.53.467 2.464 0 .397-.035.8-.106 1.21-.07.411-.134.815-.19 1.211L74.63 23.646zM41.71 8.44c.256-.481.588-.934 1-1.36.409-.424.898-.778 1.465-1.061.566-.283 1.259-.425 2.081-.425.82 0 1.585.198 2.293.595.453.255.808.545 1.062.87.255.326.44.66.553.999.112.34.183.658.212.955.028.298.043.546.043.744h-9.345c.17-.396.382-.835.637-1.317m-5.48 12.467c.85 1.005 1.954 1.82 3.314 2.442.24.11.491.207.748.298H48.8c.022-.008.047-.013.068-.021 1.203-.44 2.216-.984 3.037-1.636.821-.651 1.493-1.344 2.018-2.082.523-.736.97-1.401 1.338-1.996l-5.48-1.953c-.17.283-.382.609-.637.976a5.357 5.357 0 0 1-.998 1.062c-.41.34-.92.63-1.53.871-.608.24-1.337.36-2.187.36-1.557 0-2.733-.565-3.525-1.698a3.386 3.386 0 0 1-.616-1.53c-.071-.537-.106-1.245-.106-2.122H56.11a24.919 24.919 0 0 0 .17-2.89c0-1.783-.29-3.312-.87-4.586-.581-1.275-1.339-2.308-2.273-3.102a8.934 8.934 0 0 0-3.228-1.74 12.861 12.861 0 0 0-3.738-.553c-2.181 0-4.05.424-5.607 1.274-1.558.85-2.84 1.911-3.844 3.186a13.222 13.222 0 0 0-2.23 4.141c-.482 1.487-.722 2.867-.722 4.141 0 1.247.198 2.5.595 3.76a9.727 9.727 0 0 0 1.868 3.398"/>
        <path d="M19.453 8.44c.256-.481.588-.934.999-1.36.41-.424.898-.778 1.465-1.061.566-.283 1.26-.425 2.082-.425.82 0 1.585.198 2.293.595.453.255.807.545 1.062.87.255.326.439.66.552.999.113.34.184.658.213.955.027.298.042.546.042.744h-9.345c.17-.396.382-.835.637-1.317m-5.479 12.467c.85 1.005 1.954 1.82 3.313 2.442.24.11.492.207.75.298h8.506c.022-.008.046-.013.068-.021 1.203-.44 2.215-.984 3.037-1.636.821-.651 1.493-1.344 2.017-2.082.524-.736.97-1.401 1.338-1.996l-5.48-1.953c-.169.283-.381.609-.636.976a5.357 5.357 0 0 1-.998 1.062c-.411.34-.92.63-1.53.871-.609.24-1.338.36-2.187.36-1.558 0-2.733-.565-3.525-1.698A3.386 3.386 0 0 1 18.03 16c-.071-.537-.107-1.245-.107-2.122h15.929a24.919 24.919 0 0 0 .17-2.89c0-1.783-.29-3.312-.87-4.586-.582-1.275-1.339-2.308-2.273-3.102a8.93 8.93 0 0 0-3.229-1.74 12.861 12.861 0 0 0-3.738-.553c-2.18 0-4.05.424-5.606 1.274-1.558.85-2.84 1.911-3.844 3.186a13.222 13.222 0 0 0-2.23 4.141c-.482 1.487-.723 2.867-.723 4.141 0 1.247.198 2.5.595 3.76a9.727 9.727 0 0 0 1.87 3.398"/>
        <path d="M.467 16.808c-.057.397-.12.786-.19 1.168a6.39 6.39 0 0 0-.107 1.168c0 1.218.261 2.16.786 2.825a4.659 4.659 0 0 0 1.932 1.466c.205.083.413.15.622.212h5.923c.112-.016.224-.027.336-.043l1.147-5.055H9.642c-.312 0-.609-.02-.892-.064a2.405 2.405 0 0 1-.786-.255 1.391 1.391 0 0 1-.573-.573c-.142-.255-.213-.608-.213-1.061 0-.227.036-.517.107-.872.07-.353.134-.686.19-.998l2.082-9.132h3.78l.892-4.375H.892L0 5.594h2.973L.467 16.808zM125.96.614v7.82h-.18c-.336-1.54-.81-3.038-1.638-4.397-.982-1.589-2.546-3.374-4.586-3.374-4.684 0-5.11 8.394-5.11 11.596 0 2.867.23 5.823 1.27 8.509.729 1.883 1.785 2.809 3.742 2.809 1.556 0 3.21-.787 4.037-2.138.213-.353.23-.745.23-1.147v-6.043h-2.048v-.238h7.493v.238h-1.752v9.04h-.156c-.442-.736-1.138-1.22-2.03-1.22-.647 0-1.278.23-1.843.541l-.508.278c-1.147.508-2.243.876-3.513.876-5.814 0-8.91-6.199-8.91-11.34 0-3.76 1.433-7.782 4.48-10.132 1.367-1.056 3.021-1.834 4.782-1.834.688 0 1.367.213 2.006.467l.467.18c.532.196 1.114.385 1.687.385.713 0 1.351-.467 1.9-.876h.18z"/>
    </g>
</svg>
